<svg width="1269" height="485" viewBox="0 0 1269 485" fill="none" xmlns="http://www.w3.org/2000/svg">
<g clip-path="url(#clip0_355_16463)">
<path d="M417.8 104.5V358.7L343.8 400.9L303 424.2L196.9 484.7V420L303 359.5L343.8 336.2V198.9L303 222.1V311.3L196.9 371.9V230.5L303 170V116.4L196.9 176.9L156.3 200.1V443.2L109.9 469.6V171.3L156.3 144.9L196.9 121.7L303 61.1004L343.8 37.9004V146.7L417.8 104.5Z" fill="url(#paint0_linear_355_16463)"/>
<path d="M196.9 0V75.9L156.3 99.1L109.9 125.6L65 151.1V343L0 380.1V112.3L65 75.2L109.9 49.6L156.3 23.2L196.9 0Z" fill="url(#paint1_linear_355_16463)"/>
<path d="M512.5 358.8V102H693V154.8H573.4V202.5H673.8V251.3H573.4V305.4H694.5V358.8H512.5Z" fill="black"/>
<path d="M866.6 364.4C846.9 364.4 828.7 361 811.9 354.2C795.1 347.4 780.6 338 768.3 325.9C756 313.8 746.5 299.6 739.7 283.3C732.9 267 729.5 249.4 729.5 230.5C729.5 211.4 732.9 193.7 739.7 177.5C746.5 161.2 756 147 768.3 134.9C780.6 122.8 795.1 113.4 811.9 106.6C828.7 99.9 846.9 96.5 866.6 96.5C886.3 96.5 904.5 99.9 921.2 106.8C937.9 113.7 952.4 123.2 964.8 135.4C977.2 147.6 986.7 161.9 993.5 178.1C1000.3 194.3 1003.7 211.8 1003.7 230.5C1003.7 249.5 1000.3 267.1 993.5 283.3C986.7 299.6 977.1 313.8 964.8 325.9C952.4 338 937.9 347.5 921.2 354.2C904.5 361 886.3 364.4 866.6 364.4ZM866.6 307.1C877.1 307.1 886.8 305.3 895.8 301.8C904.7 298.3 912.5 293.1 919.1 286.4C925.7 279.7 930.8 271.6 934.4 262.1C938 252.6 939.8 242.1 939.8 230.5C939.8 215 936.6 201.5 930.3 190C923.9 178.5 915.3 169.6 904.2 163.3C893.2 157 880.7 153.9 866.6 153.9C856.1 153.9 846.4 155.7 837.4 159.2C828.5 162.7 820.7 167.9 814.2 174.6C807.7 181.3 802.5 189.4 798.9 198.8C795.2 208.2 793.4 218.8 793.4 230.5C793.4 246 796.6 259.6 802.9 271C809.3 282.5 818 291.4 829 297.7C840.2 304 852.7 307.1 866.6 307.1Z" fill="black"/>
<path d="M1105.7 358.8L1011 102H1079.6L1141.1 281.4L1201.5 102H1269L1175 358.8H1105.7Z" fill="black"/>
<path d="M512.5 358.8V102H693V154.8H573.4V202.5H673.8V251.3H573.4V305.4H694.5V358.8H512.5Z" fill="#002E77"/>
<path d="M866.6 364.4C846.9 364.4 828.7 361 811.9 354.2C795.1 347.4 780.6 338 768.3 325.9C756 313.8 746.5 299.6 739.7 283.3C732.9 267 729.5 249.4 729.5 230.5C729.5 211.4 732.9 193.7 739.7 177.5C746.5 161.2 756 147 768.3 134.9C780.6 122.8 795.1 113.4 811.9 106.6C828.7 99.9 846.9 96.5 866.6 96.5C886.3 96.5 904.5 99.9 921.2 106.8C937.9 113.7 952.4 123.2 964.8 135.4C977.2 147.6 986.7 161.9 993.5 178.1C1000.3 194.3 1003.7 211.8 1003.7 230.5C1003.7 249.5 1000.3 267.1 993.5 283.3C986.7 299.6 977.1 313.8 964.8 325.9C952.4 338 937.9 347.5 921.2 354.2C904.5 361 886.3 364.4 866.6 364.4ZM866.6 307.1C877.1 307.1 886.8 305.3 895.8 301.8C904.7 298.3 912.5 293.1 919.1 286.4C925.7 279.7 930.8 271.6 934.4 262.1C938 252.6 939.8 242.1 939.8 230.5C939.8 215 936.6 201.5 930.3 190C923.9 178.5 915.3 169.6 904.2 163.3C893.2 157 880.7 153.9 866.6 153.9C856.1 153.9 846.4 155.7 837.4 159.2C828.5 162.7 820.7 167.9 814.2 174.6C807.7 181.3 802.5 189.4 798.9 198.8C795.2 208.2 793.4 218.8 793.4 230.5C793.4 246 796.6 259.6 802.9 271C809.3 282.5 818 291.4 829 297.7C840.2 304 852.7 307.1 866.6 307.1Z" fill="#002E77"/>
<path d="M1105.7 358.8L1011 102H1079.6L1141.1 281.4L1201.5 102H1269L1175 358.8H1105.7Z" fill="#002E77"/>
<path opacity="0.6" d="M303 170L343.8 146.7V109.5L303 131.1V170Z" fill="url(#paint2_linear_355_16463)"/>
</g>
<defs>
<linearGradient id="paint0_linear_355_16463" x1="-3.56" y1="261.315" x2="404.166" y2="261.315" gradientUnits="userSpaceOnUse">
<stop stop-color="#009CF0"/>
<stop offset="1" stop-color="#002E77"/>
</linearGradient>
<linearGradient id="paint1_linear_355_16463" x1="-3.5599" y1="190.068" x2="404.166" y2="190.068" gradientUnits="userSpaceOnUse">
<stop stop-color="#009CF0"/>
<stop offset="1" stop-color="#002E77"/>
</linearGradient>
<linearGradient id="paint2_linear_355_16463" x1="316.703" y1="122.48" x2="330.268" y2="157.306" gradientUnits="userSpaceOnUse">
<stop stop-color="#161412" stop-opacity="0"/>
<stop offset="1" stop-color="#161412" stop-opacity="0.95"/>
</linearGradient>
<clipPath id="clip0_355_16463">
<rect width="1269" height="484.7" fill="white"/>
</clipPath>
</defs>
</svg>
