<svg xmlns="http://www.w3.org/2000/svg" width="32" height="32" viewBox="0 0 32 32" fill="none">
  <path d="M16 11.3438C15.8125 11.3438 15.6406 11.3802 15.4844 11.4531C15.3281 11.526 15.1875 11.625 15.0625 11.75L8.40625 18.4062C8.28125 18.5312 8.1875 18.6719 8.125 18.8281C8.0625 18.9844 8.03125 19.1562 8.03125 19.3438C8.03125 19.6979 8.16146 20.0052 8.42188 20.2656C8.68229 20.526 8.98958 20.6562 9.34375 20.6562C9.53125 20.6562 9.70312 20.625 9.85938 20.5625C10.0156 20.5 10.1562 20.4062 10.2812 20.2812L16 14.5625L21.7188 20.2812C21.8438 20.4062 21.9844 20.5 22.1406 20.5625C22.2969 20.625 22.4688 20.6562 22.6562 20.6562C23.0104 20.6562 23.3177 20.526 23.5781 20.2656C23.8385 20.0052 23.9688 19.6979 23.9688 19.3438C23.9688 19.1562 23.9375 18.9844 23.875 18.8281C23.8125 18.6719 23.7188 18.5312 23.5938 18.4062L16.9375 11.75C16.8125 11.625 16.6719 11.526 16.5156 11.4531C16.3594 11.3802 16.1875 11.3438 16 11.3438Z" fill="#212B36"/>
</svg>
