<svg xmlns="http://www.w3.org/2000/svg" width="16" height="17" viewBox="0 0 16 17" fill="none">
<path d="M9.33317 1.8335H3.99984C3.64622 1.8335 3.30708 1.97397 3.05703 2.22402C2.80698 2.47407 2.6665 2.81321 2.6665 3.16683V13.8335C2.6665 14.1871 2.80698 14.5263 3.05703 14.7763C3.30708 15.0264 3.64622 15.1668 3.99984 15.1668H11.9998C12.3535 15.1668 12.6926 15.0264 12.9426 14.7763C13.1927 14.5263 13.3332 14.1871 13.3332 13.8335V5.8335L9.33317 1.8335Z" stroke="#637381" stroke-width="1.33333" stroke-linecap="round" stroke-linejoin="round"/>
<path d="M9.3335 1.8335V5.8335H13.3335" stroke="#637381" stroke-width="1.33333" stroke-linecap="round" stroke-linejoin="round"/>
<path d="M10.6668 9.1665H5.3335" stroke="#637381" stroke-width="1.33333" stroke-linecap="round" stroke-linejoin="round"/>
<path d="M10.6668 11.8335H5.3335" stroke="#637381" stroke-width="1.33333" stroke-linecap="round" stroke-linejoin="round"/>
<path d="M6.66683 6.5H6.00016H5.3335" stroke="#637381" stroke-width="1.33333" stroke-linecap="round" stroke-linejoin="round"/>
</svg>
