<svg xmlns="http://www.w3.org/2000/svg" width="25" height="24" viewBox="0 0 25 24" fill="none">
  <path d="M10.0039 18C10.1445 18 10.2773 17.9766 10.4023 17.9297C10.5273 17.8828 10.6289 17.8125 10.707 17.7188L15.7227 12.7031C15.8164 12.625 15.8867 12.5234 15.9336 12.3984C15.9805 12.2734 16.0039 12.1406 16.0039 12C16.0039 11.8594 15.9805 11.7305 15.9336 11.6133C15.8867 11.4961 15.8164 11.3906 15.7227 11.2969L10.707 6.30469C10.6289 6.21094 10.5273 6.13672 10.4023 6.08203C10.2773 6.02734 10.1445 6 10.0039 6C9.72266 6 9.48438 6.09766 9.28906 6.29297C9.09375 6.48828 8.99609 6.71875 8.99609 6.98438C8.99609 7.14062 9.02344 7.27734 9.07812 7.39453C9.13281 7.51172 9.20703 7.61719 9.30078 7.71094L13.5898 12L9.30078 16.3125C9.20703 16.3906 9.13672 16.4922 9.08984 16.6172C9.04297 16.7422 9.01953 16.875 9.01953 17.0156C9.01953 17.2812 9.11719 17.5117 9.3125 17.707C9.50781 17.9023 9.73828 18 10.0039 18Z" fill="#919EAB"/>
</svg>
