<svg xmlns="http://www.w3.org/2000/svg" width="17" height="17" viewBox="0 0 17 17" fill="none">
<path d="M7.19996 1.91826C7.37309 1.36058 8.12691 1.36058 8.30004 1.91826L9.438 5.58384C9.51542 5.83324 9.73748 6.0021 9.98803 6.0021H13.6706C14.2308 6.0021 14.4637 6.75244 14.0105 7.09711L11.0313 9.36256C10.8286 9.5167 10.7438 9.78992 10.8212 10.0393L11.9591 13.7049C12.1323 14.2626 11.5224 14.7263 11.0692 14.3817L8.08994 12.1162C7.88724 11.9621 7.61276 11.9621 7.41006 12.1162L4.43084 14.3817C3.97758 14.7263 3.36774 14.2626 3.54086 13.7049L4.67882 10.0393C4.75625 9.78992 4.67143 9.5167 4.46873 9.36256L1.48951 7.09711C1.03626 6.75244 1.2692 6.0021 1.82945 6.0021H5.51197C5.76252 6.0021 5.98458 5.83324 6.062 5.58384L7.19996 1.91826Z" fill="#212B36"/>
</svg>
