<svg xmlns="http://www.w3.org/2000/svg" width="16" height="17" viewBox="0 0 16 17" fill="none">
<path d="M8.00016 15.1668C11.6821 15.1668 14.6668 12.1821 14.6668 8.50016C14.6668 4.81826 11.6821 1.8335 8.00016 1.8335C4.31826 1.8335 1.3335 4.81826 1.3335 8.50016C1.3335 12.1821 4.31826 15.1668 8.00016 15.1668Z" stroke="#637381" stroke-width="1.33333" stroke-linecap="round" stroke-linejoin="round"/>
<path d="M8.00016 11.1668C9.47292 11.1668 10.6668 9.97292 10.6668 8.50016C10.6668 7.0274 9.47292 5.8335 8.00016 5.8335C6.5274 5.8335 5.3335 7.0274 5.3335 8.50016C5.3335 9.97292 6.5274 11.1668 8.00016 11.1668Z" stroke="#637381" stroke-width="1.33333" stroke-linecap="round" stroke-linejoin="round"/>
<path d="M3.28662 3.78662L6.11329 6.61329" stroke="#637381" stroke-width="1.33333" stroke-linecap="round" stroke-linejoin="round"/>
<path d="M9.88672 10.3867L12.7134 13.2134" stroke="#637381" stroke-width="1.33333" stroke-linecap="round" stroke-linejoin="round"/>
<path d="M9.88672 6.61329L12.7134 3.78662" stroke="#637381" stroke-width="1.33333" stroke-linecap="round" stroke-linejoin="round"/>
<path d="M9.88672 6.6131L12.2401 4.25977" stroke="#637381" stroke-width="1.33333" stroke-linecap="round" stroke-linejoin="round"/>
<path d="M3.28662 13.2134L6.11329 10.3867" stroke="#637381" stroke-width="1.33333" stroke-linecap="round" stroke-linejoin="round"/>
</svg>
