<svg width="36" height="37" viewBox="0 0 36 37" fill="none" xmlns="http://www.w3.org/2000/svg">
		<g clip-path="url(#clip0_433_3347)">
			<path
				d="M0 4.82C0 2.444 1.944 0.5 4.32 0.5H31.68C34.056 0.5 36 2.444 36 4.82V32.18C36 34.556 34.056 36.5 31.68 36.5H4.32C1.944 36.5 0 34.556 0 32.18V4.82Z"
				fill="url(#paint0_linear_433_3347)" />
			<g clip-path="url(#clip1_433_3347)">
				<path
					d="M29.9998 11.077V23.6638L25.749 25.7533L23.4053 26.907L17.3105 29.9027V26.699L23.4053 23.7034L25.749 22.5497V15.7512L23.4053 16.9V21.3167L17.3105 24.3174V17.3159L23.4053 14.3202V11.6662L17.3105 14.6619L14.9783 15.8107V27.8478L12.3129 29.155V14.3846L14.9783 13.0774L17.3105 11.9287L23.4053 8.92805L25.749 7.7793V13.1665L29.9998 11.077Z"
					fill="white" />
				<path
					d="M17.3104 5.90234V9.66054L14.9782 10.8093L12.3128 12.1214L9.7336 13.3841V22.886L5.99976 24.7231V11.4629L9.7336 9.62588L12.3128 8.3583L14.9782 7.0511L17.3104 5.90234Z"
					fill="white" />
				<path opacity="0.6" d="M23.4053 14.3199L25.749 13.1662V11.3242L23.4053 12.3937V14.3199Z"
					fill="url(#paint1_linear_433_3347)" />
			</g>
		</g>
		<defs>
			<linearGradient id="paint0_linear_433_3347" x1="-0.65087" y1="18.5017" x2="73.8953" y2="18.5017"
				gradientUnits="userSpaceOnUse">
				<stop stop-color="#009CF0" />
				<stop offset="1" stop-color="#002E77" />
			</linearGradient>
			<linearGradient id="paint1_linear_433_3347" x1="24.1401" y1="12.1385" x2="24.9932" y2="13.9256"
				gradientUnits="userSpaceOnUse">
				<stop stop-color="#1D1D1B" stop-opacity="0" />
				<stop offset="1" stop-color="#1D1D1B" stop-opacity="0.95" />
			</linearGradient>
			<clipPath id="clip0_433_3347">
				<rect y="0.5" width="36" height="36" rx="7" fill="white" />
			</clipPath>
			<clipPath id="clip1_433_3347">
				<rect width="24" height="24" fill="white" transform="translate(5.99976 5.90234)" />
			</clipPath>
		</defs>
	</svg>